<svg width="24" height="24" viewBox="0 0 24 24" fill="none" xmlns="http://www.w3.org/2000/svg">
<g clip-path="url(#clip0_440_6717)">
<path d="M2.61747 5.7975L3.69747 6.8775C2.74697 8.41672 2.24561 10.191 2.24997 12C2.24962 13.7353 2.71244 15.4393 3.59064 16.9361C4.46883 18.4328 5.73059 19.668 7.24564 20.5142C8.76069 21.3604 10.4741 21.7869 12.2091 21.7497C13.944 21.7125 15.6376 21.2129 17.115 20.3025L18.2025 21.3825C16.3641 22.6025 14.2063 23.2522 12 23.25C9.96785 23.2494 7.97384 22.6984 6.22973 21.6556C4.48562 20.6127 3.05656 19.1169 2.09432 17.327C1.13209 15.5372 0.672628 13.5201 0.764739 11.4901C0.856851 9.46004 1.4971 7.49286 2.61747 5.7975ZM2.78247 1.7175L22.2825 21.2175L21.2175 22.2825L1.71747 2.7825L2.78247 1.7175ZM12 0.750001C14.0327 0.749225 16.0277 1.29923 17.7729 2.34155C19.5181 3.38388 20.9482 4.87958 21.9113 6.66968C22.8745 8.45978 23.3346 10.4774 23.2428 12.5081C23.151 14.5387 22.5107 16.5066 21.39 18.2025L20.3025 17.115C21.2516 15.578 21.7529 13.8065 21.75 12C21.75 9.41414 20.7227 6.93419 18.8943 5.10571C17.0658 3.27723 14.5858 2.25 12 2.25C10.1909 2.24565 8.41669 2.74701 6.87747 3.6975L5.80497 2.625C7.64037 1.4038 9.79542 0.751542 12 0.750001ZM8.32497 12.75C8.47195 13.4707 8.8276 14.1322 9.34768 14.6523C9.86776 15.1724 10.5293 15.528 11.25 15.675V17.1975C10.1278 17.0358 9.08816 16.5152 8.28648 15.7135C7.4848 14.9118 6.96418 13.8722 6.80247 12.75H8.32497ZM12.75 15.93L13.7625 16.95C13.4341 17.0661 13.0949 17.149 12.75 17.1975V15.93ZM15.93 12.75H17.1975C17.145 13.1025 17.0625 13.44 16.9425 13.7625L15.93 12.75ZM12.75 6.8025C13.8721 6.96421 14.9118 7.48483 15.7135 8.28651C16.5151 9.08819 17.0358 10.1278 17.1975 11.25H15.675C15.528 10.5293 15.1723 9.86779 14.6523 9.34771C14.1322 8.82763 13.4706 8.47198 12.75 8.325V6.8025ZM7.04997 10.2375L8.06997 11.25H6.80247C6.85497 10.8975 6.93747 10.56 7.04997 10.2375ZM11.25 6.8025V8.07L10.2375 7.05C10.5659 6.93388 10.905 6.85096 11.25 6.8025ZM17.25 6C17.4489 6 17.6396 6.07902 17.7803 6.21967C17.921 6.36032 18 6.55109 18 6.75C18 6.94891 17.921 7.13968 17.7803 7.28033C17.6396 7.42098 17.4489 7.5 17.25 7.5C17.0511 7.5 16.8603 7.42098 16.7196 7.28033C16.579 7.13968 16.5 6.94891 16.5 6.75C16.5 6.55109 16.579 6.36032 16.7196 6.21967C16.8603 6.07902 17.0511 6 17.25 6Z" fill="#4B5563"/>
</g>
<defs>
<clipPath id="clip0_440_6717">
<rect width="24" height="24" fill="white"/>
</clipPath>
</defs>
</svg>
