<svg width="24" height="24" viewBox="0 0 24 24" fill="none" xmlns="http://www.w3.org/2000/svg">
<path d="M17.0417 23.0002C13.7563 23.0002 11.0833 20.3272 11.0833 17.0417C11.0833 13.7563 13.7563 11.0833 17.0417 11.0833C20.3272 11.0833 23.0002 13.7563 23.0002 17.0417C23.0002 20.3272 20.3272 23.0002 17.0417 23.0002ZM17.0417 12.4583C14.5144 12.4583 12.4583 14.5144 12.4583 17.0417C12.4583 19.5691 14.5144 21.6252 17.0417 21.6252C19.569 21.6252 21.6252 19.5691 21.6252 17.0417C21.6252 14.5144 19.569 12.4583 17.0417 12.4583Z" fill="#4B5563"/>
<path d="M17.0418 20.7085C16.8594 20.7085 16.6846 20.6361 16.5556 20.5072C16.4267 20.3782 16.3542 20.2034 16.3542 20.021V19.3335C16.3542 19.1512 16.4267 18.9763 16.5556 18.8473C16.6846 18.7184 16.8594 18.646 17.0418 18.646C17.2241 18.646 17.399 18.7184 17.5279 18.8473C17.6568 18.9763 17.7293 19.1512 17.7293 19.3335V20.021C17.7293 20.2034 17.6568 20.3782 17.5279 20.5072C17.399 20.6361 17.2241 20.7085 17.0418 20.7085ZM17.0418 15.4376C16.8594 15.4376 16.6846 15.3651 16.5556 15.2362C16.4267 15.1073 16.3542 14.9324 16.3542 14.75V14.0625C16.3542 13.8802 16.4267 13.7053 16.5556 13.5764C16.6846 13.4474 16.8594 13.375 17.0418 13.375C17.2241 13.375 17.399 13.4474 17.5279 13.5764C17.6568 13.7053 17.7293 13.8802 17.7293 14.0625V14.75C17.7293 14.9324 17.6568 15.1073 17.5279 15.2362C17.399 15.3651 17.2241 15.4376 17.0418 15.4376Z" fill="#4B5563"/>
<path d="M17.1564 19.7919H15.896C15.7136 19.7919 15.5388 19.7194 15.4098 19.5905C15.2809 19.4615 15.2084 19.2867 15.2084 19.1043C15.2084 18.922 15.2809 18.7471 15.4098 18.6182C15.5388 18.4892 15.7136 18.4168 15.896 18.4168H17.1564C17.2476 18.4168 17.335 18.3806 17.3995 18.3161C17.464 18.2517 17.5002 18.1642 17.5002 18.0731C17.5002 17.9819 17.464 17.8944 17.3995 17.83C17.335 17.7655 17.2476 17.7293 17.1564 17.7293H16.9272C15.9794 17.7293 15.2084 16.9584 15.2084 16.0105C15.2084 15.0626 15.9794 14.2917 16.9272 14.2917H18.1877C18.37 14.2917 18.5449 14.3641 18.6738 14.4931C18.8028 14.622 18.8752 14.7969 18.8752 14.9792C18.8752 15.1616 18.8028 15.3364 18.6738 15.4654C18.5449 15.5943 18.37 15.6667 18.1877 15.6667H16.9272C16.8361 15.6667 16.7486 15.703 16.6842 15.7674C16.6197 15.8319 16.5835 15.9193 16.5835 16.0105C16.5835 16.1017 16.6197 16.1891 16.6842 16.2536C16.7486 16.318 16.8361 16.3543 16.9272 16.3543H17.1564C18.1043 16.3543 18.8752 17.1252 18.8752 18.0731C18.8752 19.0209 18.1043 19.7919 17.1564 19.7919ZM8.56245 19.3335H5.81238C5.26558 19.3328 4.74138 19.1152 4.35474 18.7286C3.96809 18.3419 3.75055 17.8178 3.74983 17.271V11.5416H2.14562C1.51402 11.5416 0.999756 11.0274 0.999756 10.3958C0.999756 10.0768 1.13543 9.77058 1.37193 9.55608L10.1502 1.18943C10.2782 1.06796 10.448 1.00024 10.6245 1.00024C10.8011 1.00024 10.9709 1.06796 11.0989 1.18943L13.3751 3.35558V2.60389C13.3751 2.42155 13.4475 2.24667 13.5764 2.11774C13.7054 1.9888 13.8802 1.91637 14.0626 1.91637H16.8127C16.995 1.91637 17.1699 1.9888 17.2988 2.11774C17.4277 2.24667 17.5002 2.42155 17.5002 2.60389V7.28726L18.3417 8.09304C18.4069 8.15551 18.4592 8.23023 18.4956 8.31292C18.532 8.39561 18.5517 8.48466 18.5537 8.57497C18.5556 8.66529 18.5398 8.75511 18.507 8.83929C18.4743 8.92348 18.4253 9.0004 18.3628 9.06565C18.3003 9.13089 18.2256 9.18319 18.1429 9.21956C18.0602 9.25594 17.9712 9.27566 17.8808 9.27762C17.7905 9.27958 17.7007 9.26373 17.6165 9.23098C17.5323 9.19822 17.4554 9.14921 17.3902 9.08673L16.336 8.07745C16.2692 8.01328 16.2161 7.93626 16.1799 7.85104C16.1436 7.76581 16.125 7.67413 16.1251 7.58152V3.29141H14.7501V4.95979C14.75 5.09428 14.7105 5.22581 14.6365 5.33808C14.5624 5.45035 14.457 5.53843 14.3334 5.59141C14.2098 5.64439 14.0733 5.65995 13.941 5.63615C13.8086 5.61236 13.6861 5.55026 13.5887 5.45755L10.625 2.63689L2.72405 10.1666H4.43734C4.61968 10.1666 4.79456 10.239 4.92349 10.368C5.05243 10.4969 5.12486 10.6718 5.12486 10.8541V17.271C5.12486 17.6495 5.43287 17.9585 5.81238 17.9585H8.56245C8.74479 17.9585 8.91966 18.0309 9.04859 18.1598C9.17753 18.2888 9.24996 18.4636 9.24996 18.646C9.24996 18.8283 9.17753 19.0032 9.04859 19.1321C8.91966 19.2611 8.74479 19.3335 8.56245 19.3335Z" fill="#4B5563"/>
</svg>
