<svg width="16" height="16" viewBox="0 0 16 16" fill="none" xmlns="http://www.w3.org/2000/svg">
<g clip-path="url(#clip0_11_4197)">
<path fill-rule="evenodd" clip-rule="evenodd" d="M0.957987 9.0035C1.00488 8.95012 1.06261 8.90735 1.12733 8.87804C1.19205 8.84872 1.26227 8.83354 1.33332 8.8335H14.6667C14.7378 8.83347 14.8081 8.84862 14.8729 8.87794C14.9377 8.90726 14.9956 8.95007 15.0425 9.00352C15.0895 9.05697 15.1245 9.11982 15.1452 9.18787C15.1659 9.25593 15.1719 9.32762 15.1627 9.39816L14.7073 12.9028C14.65 13.3445 14.4339 13.7501 14.0993 14.0441C13.7648 14.338 13.3347 14.5001 12.8893 14.5002H3.11065C2.66531 14.5001 2.23521 14.338 1.90065 14.0441C1.5661 13.7501 1.34998 13.3445 1.29265 12.9028L0.837321 9.39816C0.828097 9.32763 0.83403 9.25594 0.854723 9.18788C0.875417 9.11982 0.910395 9.05696 0.957321 9.0035H0.957987ZM1.90265 9.8335L2.28465 12.7742C2.31073 12.9749 2.40902 13.1594 2.56115 13.293C2.71328 13.4266 2.90885 13.5002 3.11132 13.5002H12.8893C13.0918 13.5002 13.2874 13.4266 13.4395 13.293C13.5916 13.1594 13.6899 12.9749 13.716 12.7742L14.0973 9.8335H1.90265Z" fill="#4B5563"/>
<path fill-rule="evenodd" clip-rule="evenodd" d="M0.166656 8.66667C0.166656 8.022 0.688657 7.5 1.33332 7.5H14.6667C14.9761 7.5 15.2728 7.62292 15.4916 7.84171C15.7104 8.0605 15.8333 8.35725 15.8333 8.66667C15.8333 8.97609 15.7104 9.27283 15.4916 9.49162C15.2728 9.71042 14.9761 9.83333 14.6667 9.83333H1.33332C1.18011 9.83333 1.02841 9.80316 0.886859 9.74453C0.745313 9.6859 0.6167 9.59996 0.508365 9.49162C0.40003 9.38329 0.314094 9.25468 0.255464 9.11313C0.196833 8.97158 0.166656 8.81988 0.166656 8.66667ZM1.33332 8.5C1.28912 8.5 1.24673 8.51756 1.21547 8.54882C1.18422 8.58007 1.16666 8.62246 1.16666 8.66667C1.16666 8.71087 1.18422 8.75326 1.21547 8.78452C1.24673 8.81577 1.28912 8.83333 1.33332 8.83333H14.6667C14.7109 8.83333 14.7533 8.81577 14.7845 8.78452C14.8158 8.75326 14.8333 8.71087 14.8333 8.66667C14.8333 8.62246 14.8158 8.58007 14.7845 8.54882C14.7533 8.51756 14.7109 8.5 14.6667 8.5H1.33332ZM3.68666 13.6467C3.78029 13.7404 3.83288 13.8675 3.83288 14C3.83288 14.1325 3.78029 14.2596 3.68666 14.3533L2.35332 15.6867C2.25854 15.775 2.13318 15.8231 2.00364 15.8208C1.87411 15.8185 1.75052 15.766 1.65891 15.6744C1.5673 15.5828 1.51483 15.4592 1.51254 15.3297C1.51025 15.2001 1.55834 15.0748 1.64666 14.98L2.97999 13.6467C3.07374 13.553 3.20082 13.5004 3.33332 13.5004C3.46582 13.5004 3.59291 13.553 3.68666 13.6467ZM12.3133 13.6467C12.2197 13.7404 12.1671 13.8675 12.1671 14C12.1671 14.1325 12.2197 14.2596 12.3133 14.3533L13.6467 15.6867C13.6924 15.7358 13.7476 15.7752 13.809 15.8025C13.8703 15.8298 13.9365 15.8445 14.0036 15.8457C14.0708 15.8469 14.1375 15.8346 14.1997 15.8094C14.262 15.7843 14.3185 15.7468 14.366 15.6994C14.4135 15.6519 14.4509 15.5953 14.4761 15.5331C14.5012 15.4708 14.5136 15.4041 14.5124 15.337C14.5112 15.2699 14.4965 15.2036 14.4692 15.1423C14.4418 15.081 14.4024 15.0258 14.3533 14.98L13.02 13.6467C12.9262 13.553 12.7992 13.5004 12.6667 13.5004C12.5342 13.5004 12.4071 13.553 12.3133 13.6467Z" fill="#4B5563"/>
<path fill-rule="evenodd" clip-rule="evenodd" d="M3.33333 1.16675C2.87333 1.16675 2.5 1.54008 2.5 2.00008V8.00008C2.5 8.13269 2.44732 8.25987 2.35355 8.35363C2.25979 8.4474 2.13261 8.50008 2 8.50008C1.86739 8.50008 1.74021 8.4474 1.64645 8.35363C1.55268 8.25987 1.5 8.13269 1.5 8.00008V2.00008C1.5 1.51385 1.69315 1.04754 2.03697 0.703719C2.38079 0.359902 2.8471 0.166748 3.33333 0.166748H4C4.24076 0.166748 4.47916 0.214169 4.70159 0.306302C4.92402 0.398436 5.12612 0.533478 5.29636 0.703719C5.4666 0.87396 5.60165 1.07606 5.69378 1.29849C5.78591 1.52093 5.83333 1.75932 5.83333 2.00008H4.83333C4.83333 1.54008 4.46 1.16675 4 1.16675H3.33333Z" fill="#4B5563"/>
<path fill-rule="evenodd" clip-rule="evenodd" d="M3.5 3.33333C3.5 2.8471 3.69315 2.38079 4.03697 2.03697C4.38079 1.69315 4.8471 1.5 5.33333 1.5C5.81956 1.5 6.28588 1.69315 6.6297 2.03697C6.97351 2.38079 7.16667 2.8471 7.16667 3.33333V4C7.16667 4.13261 7.11399 4.25979 7.02022 4.35355C6.92645 4.44732 6.79927 4.5 6.66667 4.5H4C3.86739 4.5 3.74021 4.44732 3.64645 4.35355C3.55268 4.25979 3.5 4.13261 3.5 4V3.33333ZM5.33333 2.5C4.87333 2.5 4.5 2.87333 4.5 3.33333V3.5H6.16667V3.33333C6.16667 2.87333 5.79333 2.5 5.33333 2.5Z" fill="#4B5563"/>
</g>
<defs>
<clipPath id="clip0_11_4197">
<rect width="16" height="16" fill="white"/>
</clipPath>
</defs>
</svg>
