<svg width="16" height="16" viewBox="0 0 16 16" fill="none" xmlns="http://www.w3.org/2000/svg">
<path fill-rule="evenodd" clip-rule="evenodd" d="M1.29 7.90016C1.52524 7.42948 1.8869 7.0336 2.33447 6.75689C2.78203 6.48018 3.29781 6.33358 3.824 6.3335H12.176C13.2493 6.3335 14.23 6.94016 14.71 7.90016L15.6747 9.8295C15.8489 10.1849 15.8756 10.5947 15.7489 10.9697C15.6222 11.3447 15.3525 11.6544 14.9985 11.8314C14.6444 12.0084 14.2348 12.0383 13.8588 11.9145C13.4829 11.7908 13.1711 11.5235 12.9913 11.1708L12.0733 9.3335H3.92733L3.008 11.1708C2.92254 11.3513 2.80191 11.5129 2.65318 11.6461C2.50444 11.7794 2.3306 11.8816 2.14185 11.9467C1.9531 12.0119 1.75324 12.0387 1.55398 12.0257C1.35473 12.0126 1.16009 11.9598 0.981485 11.8705C0.802881 11.7812 0.643906 11.6572 0.513881 11.5056C0.383856 11.3541 0.285399 11.1781 0.224285 10.988C0.16317 10.7979 0.140628 10.5975 0.15798 10.3985C0.175331 10.1996 0.232228 10.0061 0.325333 9.8295L1.29 7.8995V7.90016ZM3.824 7.3335C3.4835 7.33345 3.14972 7.42822 2.86005 7.6072C2.57039 7.78618 2.33629 8.04229 2.184 8.34683L1.22 10.2768C1.19007 10.3356 1.17207 10.3998 1.16705 10.4656C1.16202 10.5314 1.17008 10.5975 1.19074 10.6602C1.2114 10.7229 1.24426 10.7808 1.28743 10.8307C1.3306 10.8806 1.38322 10.9215 1.44226 10.951C1.5013 10.9805 1.56559 10.998 1.63142 11.0025C1.69725 11.007 1.76333 10.9984 1.82584 10.9773C1.88834 10.9561 1.94605 10.9228 1.99562 10.8793C2.04519 10.8357 2.08565 10.7828 2.11467 10.7235L3.07933 8.79416C3.14854 8.65574 3.25493 8.53933 3.38657 8.45796C3.51821 8.3766 3.66991 8.3335 3.82467 8.3335H12.1767C12.492 8.3335 12.7807 8.5115 12.922 8.79416L13.8867 10.7235C13.9157 10.7828 13.9561 10.8357 14.0057 10.8793C14.0553 10.9228 14.113 10.9561 14.1755 10.9773C14.238 10.9984 14.3041 11.007 14.3699 11.0025C14.4357 10.998 14.5 10.9805 14.5591 10.951C14.6181 10.9215 14.6707 10.8806 14.7139 10.8307C14.7571 10.7808 14.7899 10.7229 14.8106 10.6602C14.8313 10.5975 14.8393 10.5314 14.8343 10.4656C14.8293 10.3998 14.8113 10.3356 14.7813 10.2768L13.8167 8.34683C13.6644 8.04229 13.4303 7.78618 13.1406 7.6072C12.8509 7.42822 12.5172 7.33345 12.1767 7.3335H3.824Z" fill="#4B5563"/>
<path fill-rule="evenodd" clip-rule="evenodd" d="M2.33333 11.0001C2.46594 11.0001 2.59312 11.0528 2.68689 11.1465C2.78065 11.2403 2.83333 11.3675 2.83333 11.5001V13.1667C2.83333 13.2587 2.908 13.3334 3 13.3334H3.34667C3.37165 13.3334 3.3963 13.3277 3.4188 13.3169C3.4413 13.306 3.46108 13.2903 3.47667 13.2707L4.41 12.1041C4.51924 11.9677 4.65773 11.8576 4.81524 11.7819C4.97275 11.7062 5.14525 11.6668 5.32 11.6667H10.6787C10.8537 11.6667 11.0265 11.7061 11.1842 11.7819C11.342 11.8577 11.4807 11.9681 11.59 12.1047L12.5233 13.2714C12.539 13.2908 12.5588 13.3065 12.5813 13.3172C12.6038 13.3279 12.6284 13.3335 12.6533 13.3334H12.9993C13.0435 13.3334 13.0859 13.3159 13.1172 13.2846C13.1484 13.2533 13.166 13.211 13.166 13.1667V11.5001C13.166 11.3675 13.2187 11.2403 13.3124 11.1465C13.4062 11.0528 13.5334 11.0001 13.666 11.0001C13.7986 11.0001 13.9258 11.0528 14.0196 11.1465C14.1133 11.2403 14.166 11.3675 14.166 11.5001V13.1667C14.166 13.4762 14.0431 13.7729 13.8243 13.9917C13.6055 14.2105 13.3088 14.3334 12.9993 14.3334H12.6527C12.4777 14.3333 12.3051 14.2939 12.1474 14.2181C11.9898 14.1423 11.8512 14.032 11.742 13.8954L10.8087 12.7287C10.7932 12.7095 10.7736 12.694 10.7513 12.6833C10.7291 12.6725 10.7047 12.6669 10.68 12.6667H5.32067C5.29557 12.6667 5.27079 12.6723 5.24816 12.6831C5.22554 12.694 5.20566 12.7098 5.19 12.7294L4.25667 13.8961C4.14735 14.0326 4.00875 14.1427 3.85112 14.2184C3.69349 14.2941 3.52086 14.3334 3.346 14.3334H3C2.69058 14.3334 2.39383 14.2105 2.17504 13.9917C1.95625 13.7729 1.83333 13.4762 1.83333 13.1667V11.5001C1.83333 11.3675 1.88601 11.2403 1.97978 11.1465C2.07355 11.0528 2.20072 11.0001 2.33333 11.0001ZM2.5 2.83341C2.5 2.18875 3.022 1.66675 3.66667 1.66675H12.3333C12.978 1.66675 13.5 2.18875 13.5 2.83341V6.83342C13.5 6.96602 13.4473 7.0932 13.3536 7.18697C13.2598 7.28074 13.1326 7.33342 13 7.33342H3C2.86739 7.33342 2.74021 7.28074 2.64645 7.18697C2.55268 7.0932 2.5 6.96602 2.5 6.83342V2.83341ZM3.66667 2.66675C3.62246 2.66675 3.58007 2.68431 3.54881 2.71556C3.51756 2.74682 3.5 2.78921 3.5 2.83341V6.33342H12.5V2.83341C12.5 2.78921 12.4824 2.74682 12.4512 2.71556C12.4199 2.68431 12.3775 2.66675 12.3333 2.66675H3.66667Z" fill="#4B5563"/>
</svg>
