<svg width="24" height="24" viewBox="0 0 24 24" fill="none" xmlns="http://www.w3.org/2000/svg">
<path d="M19.901 22.2501H4.09896C3.47611 22.2496 2.87891 22.002 2.43849 21.5616C1.99808 21.1212 1.75045 20.524 1.75 19.9011L1.75 5.80744C1.75045 5.1846 1.99808 4.5874 2.43849 4.14699C2.87891 3.70657 3.47611 3.45895 4.09896 3.4585H19.901C20.5239 3.45895 21.1211 3.70657 21.5615 4.14699C22.0019 4.5874 22.2495 5.1846 22.25 5.80744V19.9011C22.2495 20.524 22.0019 21.1212 21.5615 21.5616C21.1211 22.002 20.5239 22.2496 19.901 22.2501ZM4.09896 4.73974C3.51044 4.73974 3.03125 5.21893 3.03125 5.80744V19.9011C3.03125 20.4897 3.51044 20.9688 4.09896 20.9688H19.901C20.4896 20.9688 20.9688 20.4897 20.9688 19.9011V5.80744C20.9688 5.21893 20.4896 4.73974 19.901 4.73974H4.09896Z" fill="#4B5563"/>
<path d="M21.6094 9.86455H2.39062C2.22072 9.86455 2.05778 9.79705 1.93763 9.67691C1.81749 9.55677 1.75 9.39383 1.75 9.22393C1.75 9.05402 1.81749 8.89108 1.93763 8.77094C2.05778 8.6508 2.22072 8.5833 2.39062 8.5833H21.6094C21.7793 8.5833 21.9422 8.6508 22.0624 8.77094C22.1825 8.89108 22.25 9.05402 22.25 9.22393C22.25 9.39383 22.1825 9.55677 22.0624 9.67691C21.9422 9.79705 21.7793 9.86455 21.6094 9.86455ZM6.66146 6.87498C6.49155 6.87498 6.32861 6.80748 6.20847 6.68734C6.08833 6.5672 6.02083 6.40426 6.02083 6.23436V2.39062C6.02083 2.22072 6.08833 2.05777 6.20847 1.93763C6.32861 1.81749 6.49155 1.75 6.66146 1.75C6.83136 1.75 6.99431 1.81749 7.11445 1.93763C7.23459 2.05777 7.30208 2.22072 7.30208 2.39062V6.23436C7.30208 6.40426 7.23459 6.5672 7.11445 6.68734C6.99431 6.80748 6.83136 6.87498 6.66146 6.87498ZM17.3385 6.87498C17.1686 6.87498 17.0057 6.80748 16.8856 6.68734C16.7654 6.5672 16.6979 6.40426 16.6979 6.23436V2.39062C16.6979 2.22072 16.7654 2.05777 16.8856 1.93763C17.0057 1.81749 17.1686 1.75 17.3385 1.75C17.5084 1.75 17.6714 1.81749 17.7915 1.93763C17.9117 2.05777 17.9792 2.22072 17.9792 2.39062V6.23436C17.9792 6.40426 17.9117 6.5672 17.7915 6.68734C17.6714 6.80748 17.5084 6.87498 17.3385 6.87498Z" fill="#4B5563"/>
</svg>
