<svg width="20" height="20" viewBox="0 0 20 20" fill="none" xmlns="http://www.w3.org/2000/svg">
<path d="M10.0001 10.7291C9.86979 10.7294 9.74374 10.6828 9.64497 10.5979C9.51008 10.4827 6.35425 7.75048 6.35425 4.94175C6.35425 2.90593 7.98977 1.25 10.0001 1.25C12.0104 1.25 13.6459 2.90593 13.6459 4.94175C13.6459 7.75121 10.4901 10.4834 10.3552 10.5979C10.2564 10.6828 10.1304 10.7294 10.0001 10.7291ZM10.0001 2.34374C8.59279 2.34374 7.448 3.50895 7.448 4.94175C7.448 6.75153 9.22425 8.67944 10.0001 9.43631C10.7759 8.68017 12.5522 6.75153 12.5522 4.94175C12.5522 3.50895 11.4074 2.34374 10.0001 2.34374Z" fill="#4B5563"/>
<path d="M10.0001 6.35415C9.19581 6.35415 8.54175 5.70009 8.54175 4.89583C8.54175 4.09156 9.19581 3.4375 10.0001 3.4375C10.8043 3.4375 11.4584 4.09156 11.4584 4.89583C11.4584 5.70009 10.8043 6.35415 10.0001 6.35415ZM10.0001 4.53124C9.90319 4.53144 9.81035 4.57011 9.74198 4.63876C9.67361 4.7074 9.6353 4.8004 9.6355 4.89728C9.63569 4.99417 9.67436 5.08701 9.74301 5.15538C9.81166 5.22376 9.90465 5.26206 10.0015 5.26186C10.0495 5.26177 10.097 5.25223 10.1413 5.23378C10.1856 5.21533 10.2258 5.18834 10.2596 5.15435C10.2935 5.12036 10.3203 5.08004 10.3386 5.03568C10.3569 4.99132 10.3662 4.9438 10.3661 4.89583C10.366 4.84785 10.3565 4.80037 10.338 4.75608C10.3196 4.7118 10.2926 4.67158 10.2586 4.63773C10.2246 4.60387 10.1843 4.57704 10.1399 4.55877C10.0956 4.5405 10.0481 4.53115 10.0001 4.53124Z" fill="#4B5563"/>
<path d="M16.5916 18.7501H3.40829C3.12803 18.7498 2.85094 18.6907 2.59487 18.5768C2.3388 18.4629 2.10942 18.2967 1.9215 18.0888C1.73357 17.8808 1.59126 17.6359 1.50373 17.3696C1.4162 17.1034 1.38539 16.8218 1.41329 16.5429L2.57995 5.06007C2.62759 4.56467 2.85861 4.10495 3.22768 3.77108C3.59676 3.43721 4.07727 3.25329 4.57495 3.25539C4.71999 3.25539 4.85909 3.31301 4.96165 3.41557C5.06421 3.51812 5.12183 3.65722 5.12183 3.80226C5.12183 3.9473 5.06421 4.0864 4.96165 4.18896C4.85909 4.29152 4.71999 4.34913 4.57495 4.34913C4.10391 4.34913 3.71381 4.70059 3.6686 5.16798L2.5012 16.6552C2.47495 16.9133 2.55662 17.162 2.73089 17.3552C2.90662 17.5492 3.14724 17.6564 3.40829 17.6564H16.5916C16.8526 17.6564 17.0933 17.5492 17.269 17.3552C17.4433 17.162 17.5257 16.9133 17.4987 16.6545L16.332 5.16944C16.3107 4.94408 16.2058 4.73488 16.0379 4.58305C15.87 4.43122 15.6513 4.34776 15.4249 4.34913C15.2799 4.34913 15.1408 4.29152 15.0382 4.18896C14.9357 4.0864 14.8781 3.9473 14.8781 3.80226C14.8781 3.65722 14.9357 3.51812 15.0382 3.41557C15.1408 3.31301 15.2799 3.25539 15.4249 3.25539C15.9228 3.25317 16.4035 3.43726 16.7725 3.77148C17.1416 4.1057 17.3722 4.56587 17.4192 5.06153L18.5866 16.5429C18.6146 16.8216 18.584 17.1031 18.4968 17.3693C18.4097 17.6355 18.2679 17.8805 18.0806 18.0887C17.8922 18.2967 17.6624 18.4629 17.406 18.5768C17.1496 18.6907 16.8722 18.7497 16.5916 18.7501Z" fill="#4B5563"/>
<path d="M2.70837 11.8303C2.56333 11.8303 2.42419 11.7728 2.32157 11.6703C2.21894 11.5678 2.16123 11.4288 2.16113 11.2837C2.16104 11.1387 2.21856 10.9996 2.32105 10.8969C2.42354 10.7943 2.5626 10.7366 2.70764 10.7365L7.59305 10.7292C7.73809 10.7291 7.87796 10.7866 7.98059 10.8891C8.08322 10.9916 8.14092 11.1307 8.14102 11.2757C8.14112 11.4208 8.08359 11.5599 7.9811 11.6625C7.87861 11.7652 7.73955 11.8229 7.59451 11.823L2.70837 11.8303ZM8.14066 18.3745L7.24233 17.7511L11.9571 10.9647C12.0073 10.8922 12.0743 10.8329 12.1524 10.7919C12.2305 10.7509 12.3173 10.7294 12.4055 10.7292L17.291 10.7219L17.2924 11.8157L12.6921 11.823L8.14066 18.3745Z" fill="#4B5563"/>
</svg>
