<svg width="24" height="24" viewBox="0 0 24 24" fill="none" xmlns="http://www.w3.org/2000/svg">
<path d="M19.5 1.5C19.6472 1.50012 19.7911 1.54356 19.9138 1.62492C20.0365 1.70627 20.1326 1.82194 20.19 1.9575L20.22 2.0475L21.72 7.2975C21.7489 7.40191 21.7548 7.51133 21.7373 7.61824C21.7199 7.72515 21.6795 7.82701 21.6189 7.91681C21.5583 8.00661 21.479 8.08223 21.3864 8.13845C21.2938 8.19467 21.1901 8.23017 21.0825 8.2425L21 8.25H18.75V12H23.25V13.5H21.75V23.25H20.25V21.345C19.8538 21.5754 19.4098 21.7114 18.9525 21.7425L18.75 21.75H5.25C4.72302 21.7498 4.20548 21.61 3.75 21.345V23.25H2.25V13.5H0.75V12H4.5V9C4.49867 8.81574 4.56522 8.63744 4.68695 8.49911C4.80867 8.36078 4.97707 8.27211 5.16 8.25H5.43L4.5675 6.3L5.9325 5.7L7.0725 8.25H9C9.18426 8.24867 9.36256 8.31522 9.50089 8.43694C9.63922 8.55867 9.72789 8.72707 9.75 8.91V12H17.25V8.25H15C14.8912 8.25031 14.7836 8.22694 14.6847 8.18151C14.5858 8.13607 14.498 8.06966 14.4274 7.98688C14.3567 7.9041 14.3049 7.80694 14.2756 7.70215C14.2463 7.59735 14.2401 7.48742 14.2575 7.38L14.28 7.2975L15.78 2.0475C15.8202 1.90549 15.9015 1.7785 16.0135 1.68244C16.1256 1.58638 16.2635 1.52553 16.41 1.5075L16.5 1.5H19.5ZM20.25 13.5H3.75V18.75C3.74953 19.1092 3.87795 19.4566 4.11193 19.7291C4.3459 20.0016 4.66989 20.1811 5.025 20.235L5.1375 20.2425L5.25 20.25H18.75C19.1291 20.2511 19.4945 20.1086 19.7728 19.8512C20.0511 19.5937 20.2216 19.2405 20.25 18.8625V13.5ZM8.25 9.75H6V12H8.25V9.75ZM18.93 3H17.0625L15.99 6.75H20.0025L18.93 3Z" fill="#4B5563"/>
</svg>
