<svg width="16" height="16" viewBox="0 0 16 16" fill="none" xmlns="http://www.w3.org/2000/svg">
<g clip-path="url(#clip0_11_4210)">
<path d="M11.5 16H4.5C4.36739 16 4.24021 15.9473 4.14645 15.8536C4.05268 15.7598 4 15.6326 4 15.5V4.16667C4 3.52333 4.52333 3 5.16667 3H10.8333C11.4767 3 12 3.52333 12 4.16667V15.5C12 15.6326 11.9473 15.7598 11.8536 15.8536C11.7598 15.9473 11.6326 16 11.5 16ZM5 15H11V4.16667C11 4.12246 10.9824 4.08007 10.9512 4.04882C10.9199 4.01756 10.8775 4 10.8333 4H5.16667C5.12246 4 5.08007 4.01756 5.04882 4.04882C5.01756 4.08007 5 4.12246 5 4.16667V15Z" fill="#4B5563"/>
<path d="M10.1666 3.99992H5.83331C5.7007 3.99992 5.57353 3.94724 5.47976 3.85347C5.38599 3.7597 5.33331 3.63253 5.33331 3.49992V2.49992C5.33331 1.85659 5.85665 1.33325 6.49998 1.33325H9.49998C10.1433 1.33325 10.6666 1.85659 10.6666 2.49992V3.49992C10.6666 3.63253 10.614 3.7597 10.5202 3.85347C10.4264 3.94724 10.2993 3.99992 10.1666 3.99992ZM6.33331 2.99992H9.66665V2.49992C9.66665 2.45572 9.64909 2.41332 9.61783 2.38207C9.58658 2.35081 9.54418 2.33325 9.49998 2.33325H6.49998C6.45578 2.33325 6.41338 2.35081 6.38213 2.38207C6.35087 2.41332 6.33331 2.45572 6.33331 2.49992V2.99992Z" fill="#4B5563"/>
<path d="M8 2.33333C7.86739 2.33333 7.74022 2.28066 7.64645 2.18689C7.55268 2.09312 7.5 1.96594 7.5 1.83333V0.5C7.5 0.367392 7.55268 0.240215 7.64645 0.146447C7.74022 0.0526784 7.86739 0 8 0C8.13261 0 8.25979 0.0526784 8.35355 0.146447C8.44732 0.240215 8.5 0.367392 8.5 0.5V1.83333C8.5 1.96594 8.44732 2.09312 8.35355 2.18689C8.25979 2.28066 8.13261 2.33333 8 2.33333ZM15.5 16H0.5C0.367392 16 0.240215 15.9473 0.146447 15.8536C0.0526784 15.7598 0 15.6326 0 15.5C0 15.3674 0.0526784 15.2402 0.146447 15.1464C0.240215 15.0527 0.367392 15 0.5 15H15.5C15.6326 15 15.7598 15.0527 15.8536 15.1464C15.9473 15.2402 16 15.3674 16 15.5C16 15.6326 15.9473 15.7598 15.8536 15.8536C15.7598 15.9473 15.6326 16 15.5 16Z" fill="#4B5563"/>
<path d="M2 16.0001C1.86739 16.0001 1.74021 15.9474 1.64645 15.8536C1.55268 15.7599 1.5 15.6327 1.5 15.5001V13.0034C1.5 12.8708 1.55268 12.7436 1.64645 12.6499C1.74021 12.5561 1.86739 12.5034 2 12.5034C2.13261 12.5034 2.25979 12.5561 2.35355 12.6499C2.44732 12.7436 2.5 12.8708 2.5 13.0034V15.5001C2.5 15.6327 2.44732 15.7599 2.35355 15.8536C2.25979 15.9474 2.13261 16.0001 2 16.0001Z" fill="#4B5563"/>
<path d="M2.00002 13.3334C1.26469 13.3334 0.666687 12.7354 0.666687 12.0001C0.666687 11.2647 1.26469 10.6667 2.00002 10.6667C2.73535 10.6667 3.33335 11.2647 3.33335 12.0001C3.33335 12.7354 2.73535 13.3334 2.00002 13.3334ZM2.00002 11.6667C1.91161 11.6667 1.82683 11.7019 1.76432 11.7644C1.70181 11.8269 1.66669 11.9117 1.66669 12.0001C1.66669 12.0885 1.70181 12.1733 1.76432 12.2358C1.82683 12.2983 1.91161 12.3334 2.00002 12.3334C2.08843 12.3334 2.17321 12.2983 2.23572 12.2358C2.29823 12.1733 2.33335 12.0885 2.33335 12.0001C2.33335 11.9117 2.29823 11.8269 2.23572 11.7644C2.17321 11.7019 2.08843 11.6667 2.00002 11.6667ZM14 16.0001C13.8674 16.0001 13.7402 15.9474 13.6465 15.8536C13.5527 15.7599 13.5 15.6327 13.5 15.5001V13.0034C13.5 12.8708 13.5527 12.7436 13.6465 12.6499C13.7402 12.5561 13.8674 12.5034 14 12.5034C14.1326 12.5034 14.2598 12.5561 14.3536 12.6499C14.4473 12.7436 14.5 12.8708 14.5 13.0034V15.5001C14.5 15.6327 14.4473 15.7599 14.3536 15.8536C14.2598 15.9474 14.1326 16.0001 14 16.0001Z" fill="#4B5563"/>
<path d="M14 13.3333C13.2646 13.3333 12.6666 12.7353 12.6666 12C12.6666 11.2647 13.2646 10.6667 14 10.6667C14.7353 10.6667 15.3333 11.2647 15.3333 12C15.3333 12.7353 14.7353 13.3333 14 13.3333ZM14 11.6667C13.9116 11.6667 13.8268 11.7018 13.7643 11.7643C13.7018 11.8268 13.6666 11.9116 13.6666 12C13.6666 12.0884 13.7018 12.1732 13.7643 12.2357C13.8268 12.2982 13.9116 12.3333 14 12.3333C14.0884 12.3333 14.1732 12.2982 14.2357 12.2357C14.2982 12.1732 14.3333 12.0884 14.3333 12C14.3333 11.9116 14.2982 11.8268 14.2357 11.7643C14.1732 11.7018 14.0884 11.6667 14 11.6667ZM9.16665 16H6.83331C6.7007 16 6.57353 15.9473 6.47976 15.8536C6.38599 15.7598 6.33331 15.6326 6.33331 15.5V12.5C6.33331 12.3674 6.38599 12.2402 6.47976 12.1464C6.57353 12.0527 6.7007 12 6.83331 12H9.16665C9.29925 12 9.42643 12.0527 9.5202 12.1464C9.61397 12.2402 9.66665 12.3674 9.66665 12.5V15.5C9.66665 15.6326 9.61397 15.7598 9.5202 15.8536C9.42643 15.9473 9.29925 16 9.16665 16ZM7.33331 15H8.66665V13H7.33331V15ZM8.83331 10H7.16665C7.03404 10 6.90686 9.94732 6.81309 9.85355C6.71933 9.75979 6.66665 9.63261 6.66665 9.5C6.66665 9.36739 6.71933 9.24022 6.81309 9.14645C6.90686 9.05268 7.03404 9 7.16665 9H8.83331C8.96592 9 9.0931 9.05268 9.18687 9.14645C9.28063 9.24022 9.33331 9.36739 9.33331 9.5C9.33331 9.63261 9.28063 9.75979 9.18687 9.85355C9.0931 9.94732 8.96592 10 8.83331 10ZM8.83331 6H7.16665C7.03404 6 6.90686 5.94732 6.81309 5.85355C6.71933 5.75978 6.66665 5.63261 6.66665 5.5C6.66665 5.36739 6.71933 5.24021 6.81309 5.14645C6.90686 5.05268 7.03404 5 7.16665 5H8.83331C8.96592 5 9.0931 5.05268 9.18687 5.14645C9.28063 5.24021 9.33331 5.36739 9.33331 5.5C9.33331 5.63261 9.28063 5.75978 9.18687 5.85355C9.0931 5.94732 8.96592 6 8.83331 6ZM8.83331 8H7.16665C7.03404 8 6.90686 7.94732 6.81309 7.85355C6.71933 7.75978 6.66665 7.63261 6.66665 7.5C6.66665 7.36739 6.71933 7.24022 6.81309 7.14645C6.90686 7.05268 7.03404 7 7.16665 7H8.83331C8.96592 7 9.0931 7.05268 9.18687 7.14645C9.28063 7.24022 9.33331 7.36739 9.33331 7.5C9.33331 7.63261 9.28063 7.75978 9.18687 7.85355C9.0931 7.94732 8.96592 8 8.83331 8Z" fill="#4B5563"/>
</g>
<defs>
<clipPath id="clip0_11_4210">
<rect width="16" height="16" fill="white"/>
</clipPath>
</defs>
</svg>
