<svg width="16" height="16" viewBox="0 0 16 16" fill="none" xmlns="http://www.w3.org/2000/svg">
<g clip-path="url(#clip0_11_4017)">
<path d="M13.1853 8.02877C13.1197 8.02893 13.0546 8.01605 12.994 7.99087C12.9333 7.96569 12.8782 7.92872 12.832 7.8821L11.8887 6.93943C11.8422 6.89299 11.8054 6.83785 11.7802 6.77717C11.7551 6.71649 11.7422 6.65145 11.7422 6.58576C11.7422 6.52008 11.7551 6.45504 11.7802 6.39436C11.8054 6.33368 11.8422 6.27854 11.8887 6.2321C11.9351 6.18565 11.9902 6.14881 12.0509 6.12368C12.1116 6.09854 12.1766 6.0856 12.2423 6.0856C12.308 6.0856 12.3731 6.09854 12.4337 6.12368C12.4944 6.14881 12.5496 6.18565 12.596 6.2321L13.5393 7.17477C13.6094 7.24469 13.6572 7.33387 13.6766 7.43097C13.6959 7.52808 13.686 7.62875 13.6481 7.72023C13.6102 7.8117 13.546 7.88986 13.4636 7.94479C13.3812 7.99971 13.2844 8.02894 13.1853 8.02877ZM11.7713 9.44276C11.7057 9.44293 11.6406 9.43005 11.58 9.40487C11.5193 9.37969 11.4642 9.34272 11.418 9.2961L10.4753 8.35343C10.3815 8.25963 10.3288 8.13242 10.3288 7.99977C10.3288 7.86711 10.3815 7.7399 10.4753 7.6461C10.5691 7.5523 10.6963 7.4996 10.829 7.4996C10.9616 7.4996 11.0889 7.5523 11.1827 7.6461L12.1253 8.58877C12.1954 8.65869 12.2432 8.74787 12.2626 8.84497C12.2819 8.94208 12.272 9.04275 12.2341 9.13423C12.1962 9.2257 12.132 9.30386 12.0496 9.35879C11.9672 9.41371 11.8703 9.44294 11.7713 9.44276ZM8.94266 12.2714C8.87699 12.2716 8.81194 12.2587 8.75129 12.2335C8.69063 12.2084 8.63558 12.1714 8.58933 12.1248L7.64666 11.1821C7.55287 11.0883 7.50017 10.9611 7.50017 10.8284C7.50017 10.6958 7.55287 10.5686 7.64666 10.4748C7.74046 10.381 7.86768 10.3283 8.00033 10.3283C8.13298 10.3283 8.2602 10.381 8.354 10.4748L9.29666 11.4174C9.36677 11.4874 9.41453 11.5765 9.4339 11.6736C9.45327 11.7707 9.44336 11.8714 9.40545 11.9629C9.36753 12.0544 9.30331 12.1325 9.22092 12.1875C9.13853 12.2424 9.04168 12.2716 8.94266 12.2714ZM7.52866 13.6854C7.46299 13.6856 7.39794 13.6727 7.33729 13.6475C7.27663 13.6224 7.22158 13.5854 7.17533 13.5388L6.23266 12.5954C6.13886 12.5016 6.08617 12.3744 6.08617 12.2418C6.08617 12.1091 6.13886 11.9819 6.23266 11.8881C6.32646 11.7943 6.45368 11.7416 6.58633 11.7416C6.71898 11.7416 6.8462 11.7943 6.94 11.8881L7.88266 12.8314C7.95277 12.9014 8.00053 12.9905 8.0199 13.0876C8.03927 13.1847 8.02937 13.2854 7.99145 13.3769C7.95353 13.4684 7.88931 13.5465 7.80692 13.6015C7.72453 13.6564 7.62768 13.6856 7.52866 13.6854ZM14.5993 6.6141C14.5337 6.61426 14.4686 6.60138 14.408 6.5762C14.3473 6.55102 14.2922 6.51405 14.246 6.46743L12.3607 4.5821C12.3142 4.53565 12.2774 4.48052 12.2522 4.41983C12.2271 4.35915 12.2142 4.29411 12.2142 4.22843C12.2142 4.16275 12.2271 4.09771 12.2522 4.03703C12.2774 3.97635 12.3142 3.92121 12.3607 3.87476C12.4071 3.82832 12.4622 3.79148 12.5229 3.76634C12.5836 3.74121 12.6486 3.72827 12.7143 3.72827C12.78 3.72827 12.8451 3.74121 12.9057 3.76634C12.9664 3.79148 13.0216 3.82832 13.068 3.87476L14.9533 5.7601C15.0234 5.83003 15.0712 5.9192 15.0906 6.01631C15.1099 6.11342 15.1 6.21409 15.0621 6.30556C15.0242 6.39703 14.96 6.47519 14.8776 6.53012C14.7952 6.58505 14.6984 6.61428 14.5993 6.6141ZM6.114 15.0994C6.04832 15.0996 5.98327 15.0867 5.92262 15.0615C5.86197 15.0364 5.80692 14.9994 5.76066 14.9528L3.87533 13.0674C3.78153 12.9736 3.72884 12.8464 3.72884 12.7138C3.72884 12.5811 3.78153 12.4539 3.87533 12.3601C3.96913 12.2663 4.09635 12.2136 4.229 12.2136C4.36165 12.2136 4.48886 12.2663 4.58266 12.3601L6.468 14.2454C6.5381 14.3154 6.58587 14.4045 6.60523 14.5016C6.6246 14.5987 6.6147 14.6994 6.57678 14.7909C6.53886 14.8824 6.47464 14.9605 6.39225 15.0155C6.30986 15.0704 6.21302 15.0996 6.114 15.0994ZM10.3573 10.8574C10.2917 10.8576 10.2266 10.8447 10.166 10.8195C10.1053 10.7944 10.0502 10.7574 10.004 10.7108L8.118 8.82477C8.07155 8.77832 8.03471 8.72318 8.00957 8.6625C7.98444 8.60182 7.9715 8.53678 7.9715 8.4711C7.9715 8.40542 7.98444 8.34038 8.00957 8.2797C8.03471 8.21901 8.07155 8.16388 8.118 8.11743C8.16444 8.07099 8.21958 8.03415 8.28026 8.00901C8.34094 7.98388 8.40598 7.97094 8.47166 7.97094C8.53735 7.97094 8.60238 7.98388 8.66307 8.00901C8.72375 8.03415 8.77889 8.07099 8.82533 8.11743L10.7113 10.0034C10.7814 10.0734 10.8292 10.1625 10.8486 10.2596C10.8679 10.3567 10.858 10.4574 10.8201 10.5489C10.7822 10.6404 10.718 10.7185 10.6356 10.7735C10.5532 10.8284 10.4564 10.8576 10.3573 10.8574Z" fill="#4B5563"/>
<path d="M4.936 16.002C4.62467 16.002 4.33133 15.8807 4.11133 15.66L0.340001 11.8887C0.119334 11.668 -0.0019989 11.3754 -0.0019989 11.064C-0.0019989 10.7527 0.119334 10.4594 0.340001 10.2394L10.2393 0.340021C10.68 -0.100645 11.448 -0.100645 11.8893 0.340021L15.6607 4.11135C15.8813 4.33202 16.0027 4.62469 16.0027 4.93602C16.0027 5.24735 15.8813 5.54069 15.6607 5.76069L5.76067 15.66C5.54067 15.8807 5.24733 16.002 4.936 16.002ZM11.064 0.998021C11.0421 0.997946 11.0204 1.00221 11.0001 1.01056C10.9799 1.01891 10.9615 1.03119 10.946 1.04669L1.04667 10.946C1.01564 10.9775 0.99825 11.0199 0.99825 11.064C0.99825 11.1082 1.01564 11.1506 1.04667 11.182L4.818 14.9534C4.83348 14.9689 4.85187 14.9812 4.87212 14.9896C4.89237 14.998 4.91408 15.0023 4.936 15.0023C4.95792 15.0023 4.97963 14.998 4.99988 14.9896C5.02013 14.9812 5.03852 14.9689 5.054 14.9534L14.9533 5.05402C14.9844 5.02258 15.0018 4.98019 15.0018 4.93602C15.0018 4.89185 14.9844 4.84946 14.9533 4.81802L11.182 1.04669C11.1665 1.03119 11.1481 1.01891 11.1279 1.01056C11.1076 1.00221 11.0859 0.997946 11.064 0.998021Z" fill="#4B5563"/>
</g>
<defs>
<clipPath id="clip0_11_4017">
<rect width="16" height="16" fill="white"/>
</clipPath>
</defs>
</svg>
