<svg width="24" height="24" viewBox="0 0 24 24" fill="none" xmlns="http://www.w3.org/2000/svg">
<path d="M18 20.25C18.7425 20.25 19.4625 20.5125 20.0025 21C20.2275 21.2175 20.535 21.3375 20.8575 21.375H21V22.875H20.8275C20.1497 22.8414 19.5039 22.5767 18.9975 22.125C18.7228 21.8809 18.3674 21.7473 18 21.75C17.625 21.75 17.265 21.8775 17.0025 22.125C16.4505 22.6137 15.7372 22.8809 15 22.875C14.2628 22.8809 13.5495 22.6137 12.9975 22.125C12.7228 21.8809 12.3674 21.7473 12 21.75C11.625 21.75 11.265 21.8775 11.0025 22.125C10.4505 22.6137 9.73721 22.8809 9 22.875C8.26279 22.8809 7.54948 22.6137 6.9975 22.125C6.72285 21.8809 6.36744 21.7473 6 21.75C5.625 21.75 5.265 21.8775 5.0025 22.125C4.4961 22.5767 3.85027 22.8414 3.1725 22.875H3V21.375H3.1425C3.46082 21.3468 3.76112 21.2151 3.9975 21C4.54948 20.5113 5.26279 20.2441 6 20.25C6.7425 20.25 7.4625 20.5125 8.0025 21C8.265 21.2475 8.625 21.375 9 21.375C9.375 21.375 9.735 21.2475 9.9975 21C10.5491 20.5107 11.2627 20.2434 12 20.25C12.7425 20.25 13.4625 20.5125 14.0025 21C14.265 21.2475 14.625 21.375 15 21.375C15.375 21.375 15.735 21.2475 15.9975 21C16.5495 20.5113 17.2628 20.2441 18 20.25ZM18 16.5C18.7425 16.5 19.4625 16.7625 20.0025 17.25C20.2275 17.4675 20.535 17.5875 20.8575 17.625H21V19.125H20.8275C20.1497 19.0914 19.5039 18.8267 18.9975 18.375C18.7228 18.1309 18.3674 17.9973 18 18C17.625 18 17.265 18.1275 17.0025 18.375C16.4505 18.8637 15.7372 19.1309 15 19.125C14.2628 19.1309 13.5495 18.8637 12.9975 18.375C12.7228 18.1309 12.3674 17.9973 12 18C11.625 18 11.265 18.1275 11.0025 18.375C10.4505 18.8637 9.73721 19.1309 9 19.125C8.26279 19.1309 7.54948 18.8637 6.9975 18.375C6.72285 18.1309 6.36744 17.9973 6 18C5.625 18 5.265 18.1275 5.0025 18.375C4.4961 18.8267 3.85027 19.0914 3.1725 19.125H3V17.625H3.1425C3.46082 17.5968 3.76112 17.4651 3.9975 17.25C4.54948 16.7613 5.26279 16.4941 6 16.5C6.7425 16.5 7.4625 16.7625 8.0025 17.25C8.265 17.4975 8.625 17.625 9 17.625C9.375 17.625 9.735 17.4975 9.9975 17.25C10.5491 16.7607 11.2627 16.4934 12 16.5C12.7425 16.5 13.4625 16.7625 14.0025 17.25C14.265 17.4975 14.625 17.625 15 17.625C15.375 17.625 15.735 17.4975 15.9975 17.25C16.5495 16.7613 17.2628 16.4941 18 16.5ZM18 12.75C18.7425 12.75 19.4625 13.0125 20.0025 13.5C20.2275 13.7175 20.535 13.8375 20.8575 13.875H21V15.375H20.8275C20.1497 15.3414 19.5039 15.0767 18.9975 14.625C18.7228 14.3809 18.3674 14.2473 18 14.25C17.625 14.25 17.265 14.3775 17.0025 14.625C16.4505 15.1137 15.7372 15.3809 15 15.375C14.2628 15.3809 13.5495 15.1137 12.9975 14.625C12.7228 14.3809 12.3674 14.2473 12 14.25C11.625 14.25 11.265 14.3775 11.0025 14.625C10.4505 15.1137 9.73721 15.3809 9 15.375C8.26279 15.3809 7.54948 15.1137 6.9975 14.625C6.72285 14.3809 6.36744 14.2473 6 14.25C5.625 14.25 5.265 14.3775 5.0025 14.625C4.4961 15.0767 3.85027 15.3414 3.1725 15.375H3V13.875H3.1425C3.46082 13.8468 3.76112 13.7151 3.9975 13.5C4.54948 13.0113 5.26279 12.7441 6 12.75C6.7425 12.75 7.4625 13.0125 8.0025 13.5C8.265 13.7475 8.625 13.875 9 13.875C9.375 13.875 9.735 13.7475 9.9975 13.5C10.5491 13.0107 11.2627 12.7434 12 12.75C12.7425 12.75 13.4625 13.0125 14.0025 13.5C14.265 13.7475 14.625 13.875 15 13.875C15.375 13.875 15.735 13.7475 15.9975 13.5C16.5495 13.0113 17.2628 12.7441 18 12.75ZM12 0.750005C13.0185 0.74986 14.0239 0.980205 14.9407 1.42378C15.8575 1.86736 16.6621 2.51267 17.2941 3.31136C17.9262 4.11005 18.3693 5.04142 18.5902 6.03567C18.8112 7.02993 18.8043 8.0613 18.57 9.0525C19.1025 9.15 19.5975 9.39 20.0025 9.7575C20.2275 9.96 20.535 10.0875 20.8575 10.1175L21 10.125V11.625H20.8275C20.1497 11.5914 19.5039 11.3267 18.9975 10.875C18.7611 10.66 18.4608 10.5282 18.1425 10.5H17.97C17.66 10.5036 17.3586 10.6031 17.1075 10.785L17.0025 10.8675C16.4516 11.3589 15.7382 11.6288 15 11.625C14.2628 11.6309 13.5495 11.3637 12.9975 10.875C12.7228 10.6309 12.3674 10.4973 12 10.5C11.625 10.5 11.265 10.6275 11.0025 10.875C10.4505 11.3637 9.73721 11.6309 9 11.625C8.26279 11.6309 7.54948 11.3637 6.9975 10.875C6.76112 10.66 6.46082 10.5282 6.1425 10.5H5.97C5.65995 10.5036 5.35863 10.6031 5.1075 10.785L5.0025 10.8675C4.4961 11.3192 3.85027 11.5839 3.1725 11.6175L3 11.625V10.125H3.1425C3.46082 10.0968 3.76112 9.96506 3.9975 9.75C4.39961 9.39131 4.89256 9.15002 5.4225 9.0525C5.1881 8.06068 5.18132 7.02866 5.40269 6.03384C5.62406 5.03903 6.06782 4.10726 6.70068 3.30842C7.33354 2.50958 8.13908 1.86442 9.05687 1.42133C9.97465 0.978241 10.9809 0.748727 12 0.750005ZM12 2.25001C11.1667 2.24944 10.3453 2.44723 9.60361 2.82702C8.86193 3.20681 8.2213 3.75769 7.73469 4.43411C7.24808 5.11053 6.92946 5.89306 6.80519 6.71701C6.68091 7.54096 6.75454 8.38265 7.02 9.1725C7.3875 9.3 7.7175 9.495 8.0025 9.7575C8.265 9.9975 8.625 10.125 9 10.125C9.375 10.125 9.735 9.9975 9.9975 9.75C10.5491 9.26067 11.2627 8.99342 12 9C12.7425 9 13.4625 9.2625 14.0025 9.75C14.265 9.9975 14.625 10.125 15 10.125C15.3229 10.1293 15.6385 10.0294 15.9 9.84L15.9975 9.7575C16.2825 9.495 16.6125 9.3075 16.9725 9.1725C17.2378 8.38325 17.3115 7.54223 17.1876 6.71886C17.0637 5.8955 16.7458 5.1134 16.26 4.43715C15.7742 3.7609 15.1346 3.20988 14.3939 2.82959C13.6532 2.4493 12.8326 2.25063 12 2.25001Z" fill="#4B5563"/>
</svg>
