<svg width="24" height="24" viewBox="0 0 24 24" fill="none" xmlns="http://www.w3.org/2000/svg">
<path d="M11.9999 15.2476C12.7299 15.2476 13.43 15.5376 13.9462 16.0537C14.4624 16.5699 14.7524 17.2701 14.7524 18.0001C14.7524 18.7301 14.4624 19.4302 13.9462 19.9464C13.43 20.4626 12.7299 20.7526 11.9999 20.7526C11.2699 20.7526 10.5698 20.4626 10.0536 19.9464C9.53743 19.4302 9.24743 18.7301 9.24743 18.0001C9.24743 17.2701 9.53743 16.5699 10.0536 16.0537C10.5698 15.5376 11.2699 15.2476 11.9999 15.2476ZM11.9999 16.7476C11.6677 16.7476 11.3492 16.8795 11.1143 17.1144C10.8794 17.3493 10.7474 17.6679 10.7474 18.0001C10.7474 18.3322 10.8794 18.6508 11.1143 18.8857C11.3492 19.1206 11.6677 19.2526 11.9999 19.2526C12.3321 19.2526 12.6507 19.1206 12.8856 18.8857C13.1205 18.6508 13.2524 18.3322 13.2524 18.0001C13.2524 17.6679 13.1205 17.3493 12.8856 17.1144C12.6507 16.8795 12.3321 16.7476 11.9999 16.7476ZM11.9999 11.2501C13.251 11.2504 14.4775 11.5984 15.5422 12.2553C16.607 12.9122 17.4683 13.8521 18.0299 14.9701L16.8974 16.1026C16.5156 15.1138 15.8434 14.2637 14.9692 13.6642C14.0951 13.0647 13.0599 12.7439 11.9999 12.7439C10.94 12.7439 9.90481 13.0647 9.03065 13.6642C8.1565 14.2637 7.48428 15.1138 7.10243 16.1026L5.96993 14.9701C6.53154 13.8521 7.39282 12.9122 8.45761 12.2553C9.52241 11.5984 10.7488 11.2504 11.9999 11.2501ZM11.9999 7.25256C15.7349 7.25256 19.0274 9.15756 20.9549 12.0526L19.8674 13.1326C19.0388 11.7912 17.8811 10.6839 16.5041 9.91601C15.1271 9.14808 13.5766 8.74497 11.9999 8.74497C10.4233 8.74497 8.8728 9.14808 7.49581 9.91601C6.11881 10.6839 4.96102 11.7912 4.13243 13.1326L3.04493 12.0451C4.02546 10.568 5.35637 9.35669 6.91892 8.51914C8.48148 7.68159 10.2271 7.24388 11.9999 7.24506V7.25256ZM11.9999 3.24756C16.8374 3.24756 21.1349 5.57256 23.8199 9.17256L22.7474 10.2526C21.5225 8.54613 19.9088 7.1559 18.0398 6.19692C16.1709 5.23793 14.1005 4.73775 11.9999 4.73775C9.89934 4.73775 7.82894 5.23793 5.96002 6.19692C4.09111 7.1559 2.47741 8.54613 1.25243 10.2526L0.179932 9.18006C2.86493 5.58006 7.15493 3.25506 11.9999 3.25506V3.24756Z" fill="#4B5563"/>
</svg>
