<svg width="20" height="20" viewBox="0 0 20 20" fill="none" xmlns="http://www.w3.org/2000/svg">
<path d="M14.714 13.8807C13.9865 14.6083 12.5189 16.0758 11.4134 17.1813C10.6324 17.9624 9.36758 17.9623 8.58654 17.1813C7.50092 16.0957 6.06045 14.6552 5.28595 13.8807C2.68245 11.2772 2.68245 7.05612 5.28595 4.45262C7.88945 1.84913 12.1105 1.84913 14.714 4.45262C17.3175 7.05612 17.3175 11.2772 14.714 13.8807Z" stroke="#4B5563" stroke-width="1.5" stroke-linecap="round" stroke-linejoin="round"/>
<path d="M12.5 9.16667C12.5 10.5474 11.3807 11.6667 10 11.6667C8.61928 11.6667 7.5 10.5474 7.5 9.16667C7.5 7.78596 8.61928 6.66667 10 6.66667C11.3807 6.66667 12.5 7.78596 12.5 9.16667Z" stroke="#4B5563" stroke-width="1.5" stroke-linecap="round" stroke-linejoin="round"/>
</svg>
